<?xml version="1.0" encoding="UTF-8"?>
<svg id="Ebene_1" data-name="Ebene 1" xmlns="http://www.w3.org/2000/svg" xmlns:xlink="http://www.w3.org/1999/xlink" viewBox="0 0 830.77 253.9">
  <defs>
    <clipPath id="clippath">
      <path d="M244.3,253.1l-1.8.8-5.7-12.2,1.8-.9,5.7,12.3ZM225.4,217.2l5.7,12.2,1.8-.8-5.7-12.2-1.8.8ZM119.2,20.9l-1.8-.8-5.6,12,1.8.8,5.6-12ZM126.7,4.7l1.9,4.2,1.8-.8-3.7-8.1-3.8,8.1,1.8.8,2-4.2ZM141.6,32l-5.6-12-1.8.8,5.6,12,1.8-.8ZM38.6,194.3l-.5-.3.5.3.2-.5h0L104.2,53.1h0l3.9-8.4-1.8-.8-4.9,10.6-69.4,32.1,6.5,103.1-1.8,3.8h0l-3.5,7.6h-6.2v2h13.4v-2h-5l3.2-6.8ZM9.1,253.1l1.8.8,5.7-12.2-1.8-.9-5.7,12.3ZM20.5,228.6l1.8.8,5.7-12.2-1.8-.8-5.7,12.2ZM221.3,86.6l-6.5,103.1h0l.1.2,1.7,3.6h0l3.5,7.6.9,2h-45.4v-1c0-16.7,9.6-32,24.4-39.3h0l-50.8-109.6h.1l-3.9-8.4,1.8-.8,4.9,10.6,69.2,32ZM217.9,201l-3.1-6.7h0l-.2-.4h0v.1l-13.6-29.3c-13.9,6.9-22.9,21-23.3,36.5h40.2v-.2ZM87.4,201h-6.4v2h5.5l-9.2,22.3,49.4,28.2,49.4-28.2-10.1-24.3h-78.6ZM100.8,169.4h51.7l-25.9-62.9-25.8,62.9ZM54,203h13.5v-2h-13.5v2ZM13.5,201H0v2h13.5v-2Z" fill="#fff"/>
    </clipPath>
  </defs>
  <g>
    <path d="M244.3,253.1l-1.8.8-5.7-12.2,1.8-.9,5.7,12.3ZM225.4,217.2l5.7,12.2,1.8-.8-5.7-12.2-1.8.8ZM119.2,20.9l-1.8-.8-5.6,12,1.8.8,5.6-12ZM126.7,4.7l1.9,4.2,1.8-.8-3.7-8.1-3.8,8.1,1.8.8,2-4.2ZM141.6,32l-5.6-12-1.8.8,5.6,12,1.8-.8ZM38.6,194.3l-.5-.3.5.3.2-.5h0L104.2,53.1h0l3.9-8.4-1.8-.8-4.9,10.6-69.4,32.1,6.5,103.1-1.8,3.8h0l-3.5,7.6h-6.2v2h13.4v-2h-5l3.2-6.8ZM9.1,253.1l1.8.8,5.7-12.2-1.8-.9-5.7,12.3ZM20.5,228.6l1.8.8,5.7-12.2-1.8-.8-5.7,12.2ZM221.3,86.6l-6.5,103.1h0l.1.2,1.7,3.6h0l3.5,7.6.9,2h-45.4v-1c0-16.7,9.6-32,24.4-39.3h0l-50.8-109.6h.1l-3.9-8.4,1.8-.8,4.9,10.6,69.2,32ZM217.9,201l-3.1-6.7h0l-.2-.4h0v.1l-13.6-29.3c-13.9,6.9-22.9,21-23.3,36.5h40.2v-.2ZM87.4,201h-6.4v2h5.5l-9.2,22.3,49.4,28.2,49.4-28.2-10.1-24.3h-78.6ZM100.8,169.4h51.7l-25.9-62.9-25.8,62.9ZM54,203h13.5v-2h-13.5v2ZM13.5,201H0v2h13.5v-2Z" fill="#fff"/>
    <g clip-path="url(#clippath)">
      <rect x="203.71" y="207.24" width="64.07" height="46.66" fill="#fff"/>
      <rect x="-4.04" y="207.24" width="64.07" height="46.66" fill="#fff"/>
      <rect x="-39.82" y="176.79" width="64.07" height="46.66" fill="#fff"/>
      <ellipse cx="121.22" cy="137.95" rx="121.31" ry="121.31" fill="#fff"/>
      <rect x="122.9" width="7.5" height="8.9" fill="#fff"/>
      <rect x="130.56" y="18.73" width="14.68" height="14.68" transform="translate(111.83 163.97) rotate(-90)" fill="#fff"/>
      <rect x="108.16" y="18.73" width="14.68" height="14.68" transform="translate(141.57 -89.43) rotate(90)" fill="#fff"/>
    </g>
  </g>
  <g>
    <path d="M409.97,96.55l12.5-38.4c.3-.9.9-1.3,1.7-1.3h4c.9,0,1.4.4,1.7,1.3l12.5,38.4c.3,1-.1,1.7-1.3,1.7h-2.9c-.9,0-1.4-.3-1.7-1.3l-2.7-9h-15.5l-2.7,9c-.3.9-.9,1.3-1.7,1.3h-2.7c-1-.1-1.6-.7-1.2-1.7M432.47,83.15l-6.3-21.5h-.1l-6.3,21.5h12.7Z" fill="#fff"/>
    <path d="M454.57,96.65v-38.4c0-1,.6-1.4,1.4-1.4h5.7c.9,0,1.4.3,1.7,1.1l14.3,35.3h.1c-.3-5.7-.1-12.2-.4-17.8v-17.2c0-1,.6-1.4,1.4-1.4h2.7c1,0,1.4.6,1.4,1.4v38.4c0,1-.6,1.4-1.4,1.4h-6c-.9,0-1.4-.3-1.7-1.1l-14-34.3h-.1c.3,5.4.1,11.3.3,16.8v17.1c0,1-.6,1.4-1.4,1.4h-2.7c-.7.2-1.3-.4-1.3-1.3" fill="#fff"/>
    <path d="M528.97,76.45v17.3c0,.7-.3,1.4-.9,1.7-3,2-7.9,3.6-12.6,3.6-11.2,0-17.1-7.3-17.1-21.6,0-12.9,7.2-21.6,18.1-21.6,3.6,0,7.2,1.1,10.2,3,.7.6.9,1.3.3,2.2l-1,1.4c-.6.7-1.1.9-2,.3-2-1.3-4.6-2.2-7-2.2-7.7,0-12.5,6.3-12.5,16.8,0,11.5,3.4,16.8,11.2,16.8,2.7,0,5.6-.7,7.7-1.9v-12.9h-6c-1,0-1.4-.6-1.4-1.4v-1.6c0-1,.6-1.4,1.4-1.4h10.2c1-.1,1.4.5,1.4,1.5" fill="#fff"/>
    <path d="M572.47,58.25v27c0,8.5-5.4,13.9-14.2,13.9s-14.2-5.6-14.2-13.9v-27c0-1,.6-1.4,1.4-1.4h2.7c1,0,1.4.6,1.4,1.4v26.5c0,5.9,2.9,9.3,8.6,9.3s8.6-3.4,8.6-9.3v-26.5c0-1,.6-1.4,1.4-1.4h2.7c1,0,1.6.5,1.6,1.4" fill="#fff"/>
    <path d="M611.57,94.65v2c0,1-.6,1.4-1.4,1.4h-19.1c-1,0-1.4-.6-1.4-1.4v-38.4c0-1,.6-1.4,1.4-1.4h2.7c1,0,1.4.6,1.4,1.4v35h14.9c1.1,0,1.5.4,1.5,1.4" fill="#fff"/>
    <path d="M619.47,96.55l12.5-38.4c.3-.9.9-1.3,1.7-1.3h4c.9,0,1.4.4,1.7,1.3l12.5,38.4c.3,1-.1,1.7-1.3,1.7h-2.9c-.9,0-1.4-.3-1.7-1.3l-2.7-9h-15.5l-2.7,9c-.3.9-.9,1.3-1.7,1.3h-2.7c-1.1-.1-1.5-.7-1.2-1.7M641.97,83.15l-6.3-21.5h-.1l-6.3,21.5h12.7Z" fill="#fff"/>
    <path d="M690.57,98.15h-3.2c-.7,0-1.4-.3-1.7-1l-9.2-15.9h-6.6v15.3c0,1-.6,1.4-1.4,1.4h-2.9c-1,0-1.4-.6-1.4-1.4v-38.3c0-1,.6-1.4,1.4-1.4h9.2c10,0,16.1,4.6,16.1,12.2,0,6-3.4,9.7-8.7,11.3l9.5,16.1c.5.9,0,1.7-1.1,1.7M674.77,76.75c6.6,0,10-2.9,10-8s-3.2-7.6-9.5-7.6h-5.6v15.6h5.1Z" fill="#fff"/>
    <path d="M270.97,196.45l18.8-65.2c.4-1.6,1.6-2.4,3.2-2.4h16.9c1.6,0,2.7.9,3.2,2.4l18.8,65.2c.6,1.9-.4,3.2-2.3,3.2h-11.6c-1.6,0-2.7-.7-3-2.4l-3.2-12.8h-20.8l-3,12.8c-.4,1.7-1.6,2.4-3.2,2.4h-11.5c-1.9,0-2.9-1.3-2.3-3.2M309.07,172.35l-7.6-31.7h-.1l-7.6,31.7h15.3Z" fill="#fff"/>
    <path d="M390.97,199.65h-11.9c-1.4,0-2.6-.6-3.3-1.9l-14.5-26.1h-5.7v25.2c0,1.9-1,2.9-2.9,2.9h-11c-1.9,0-2.9-1-2.9-2.9v-65.2c0-1.9,1-2.9,2.9-2.9h18.1c20.2,0,31.4,7.2,31.4,21.6,0,10-5.4,16.8-13.6,19.6l15.3,26.2c1.2,2,.4,3.5-1.9,3.5M355.67,161.05h6.6c8,0,12.2-3.7,12.2-10.6,0-6.3-4-9.9-11.6-9.9h-7.2v20.5Z" fill="#fff"/>
    <path d="M444.67,185.85l4.3,6.3c.9,1.4.9,3-.6,4-5,3.4-11.6,5.3-18.3,5.3-19.8,0-32.1-14.2-32.1-37.3s12.3-37.3,31.8-37.3c6.7,0,13.3,1.9,18.1,5.2,1.6,1,1.6,2.4.6,4l-4.3,6.3c-1,1.6-2.3,1.6-3.9.6-2.9-1.6-6.2-2.6-9.6-2.6-9.6,0-15.2,8.2-15.2,23.8s5.6,23.8,15.2,23.8c3.6,0,7.2-1,10.2-2.7,1.5-1,2.8-1,3.8.6" fill="#fff"/>
    <path d="M512.97,131.65v65.2c0,1.9-1,2.9-2.7,2.9h-11.2c-1.7,0-2.7-1-2.7-2.9v-28h-21.1v28c0,1.9-1,2.9-2.9,2.9h-11c-1.9,0-2.9-1-2.9-2.9v-65.2c0-1.9,1-2.9,2.9-2.9h11c1.9,0,2.9,1,2.9,2.9v24.5h21.1v-24.5c0-1.9,1-2.9,2.7-2.9h11.2c1.7,0,2.7,1,2.7,2.9" fill="#fff"/>
    <path d="M544.57,131.65v65.2c0,1.9-1,2.9-2.9,2.9h-11c-1.9,0-2.9-1-2.9-2.9v-65.2c0-1.9,1-2.9,2.9-2.9h11c1.9,0,2.9,1,2.9,2.9" fill="#fff"/>
    <path d="M571.67,196.75v-54.9h-14.7c-1.9,0-2.9-1-2.9-2.9v-7.5c0-1.9,1-2.9,2.9-2.9h46.3c1.7,0,2.7,1,2.7,2.9v7.5c0,1.9-1,2.9-2.7,2.9h-14.8v54.9c0,1.9-1,2.9-2.9,2.9h-11c-1.9,0-2.9-1.1-2.9-2.9" fill="#fff"/>
    <path d="M615.57,196.75v-65.2c0-1.9,1-2.9,2.9-2.9h36.7c1.7,0,2.7,1,2.7,2.9v7.2c0,1.7-1,2.7-2.7,2.7h-22.8v15.9h18.8c1.9,0,2.9,1,2.9,2.7v6c0,1.9-1,2.9-2.9,2.9h-18.8v17.6h23.2c1.7,0,2.7,1,2.7,2.9v7.2c0,1.9-1,2.9-2.7,2.9h-37.1c-1.9.1-2.9-1-2.9-2.8" fill="#fff"/>
    <path d="M713.77,185.85l4.3,6.3c.9,1.4.9,3-.6,4-5,3.4-11.6,5.3-18.3,5.3-19.8,0-32.1-14.2-32.1-37.3s12.3-37.3,31.8-37.3c6.7,0,13.3,1.9,18.1,5.2,1.6,1,1.6,2.4.6,4l-4.3,6.3c-1,1.6-2.3,1.6-3.9.6-2.9-1.6-6.2-2.6-9.6-2.6-9.6,0-15.2,8.2-15.2,23.8s5.6,23.8,15.2,23.8c3.6,0,7.2-1,10.2-2.7,1.5-1,2.8-1,3.8.6" fill="#fff"/>
    <path d="M739.87,196.75v-54.9h-14.8c-1.9,0-2.9-1-2.9-2.9v-7.5c0-1.9,1-2.9,2.9-2.9h46.3c1.7,0,2.7,1,2.7,2.9v7.5c0,1.9-1,2.9-2.7,2.9h-14.8v54.9c0,1.9-1,2.9-2.9,2.9h-11c-1.8,0-2.8-1.1-2.8-2.9" fill="#fff"/>
    <path d="M778.27,193.45c-1.4-1-1.6-2.6-.6-4l4.3-6.2c1-1.4,2.3-1.7,3.9-.6,4.9,3.3,11.6,5.7,16.9,5.7,6.6,0,10.6-2.9,10.6-7.9,0-6.7-5-8.2-13.8-11-9.5-3.3-20.6-7.6-20.6-21.2s10.2-21.4,26.5-21.4c7.2,0,14.9,2.3,20.4,5.7,1.6.9,1.7,2.3.7,3.9l-4.2,6c-.9,1.4-2.3,1.7-3.9.9-3.9-2.2-8.6-3.3-12.6-3.3-6,0-9.6,2.6-9.6,6.7,0,5,4.3,6.5,12.3,9.2,9.7,3,22.2,7,22.2,22.8-.1,14.6-12.2,22.5-27.7,22.5-8.7.2-17.9-2.7-24.8-7.8" fill="#fff"/>
  </g>
</svg>